# xmcd
#
# Track frame offsets:
#	150
#	25893
#	40320
#	56038
#	79268
#	111043
#	123175
#	150127
#	166711
#	196129
#	216826
#	234996
#
# Disc length: 3378 seconds
#
# Revision: 0
# Processed by: cddbd v1.5.2PL0 Copyright (c) Steve Scherf et al.
# Submitted via: EZCDAudioConverter 5.0.0.1
#
DISCID=8c0d300c
DTITLE=Popa Chubby - Catfish
DYEAR=2016
DGENRE=Blues Rock
TTITLE0=Going Downtown
TTITLE1=Good Thing
TTITLE2=Bye Bye Love
TTITLE3=Cry Till It's A Dull Ache
TTITLE4=Wes Is More
TTITLE5=Motorhead Saved My Life
TTITLE6=Blues For Charlie
TTITLE7=Dirty Diesel\n
TTITLE8=Slow Down Sugar
TTITLE9=Put A Grown Man To Shame
TTITLE10=\nThe Catfish\n
TTITLE11=C'mon In My Kitchen
EXTD=
EXTT0=
EXTT1=
EXTT2=
EXTT3=
EXTT4=
EXTT5=
EXTT6=
EXTT7=
EXTT8=
EXTT9=
EXTT10=
EXTT11=
PLAYORDER=
